<svg width="16" height="16" viewBox="0 0 16 16" fill="none" xmlns="http://www.w3.org/2000/svg">
<path d="M8.06536 13.8667C7.73203 13.8667 7.33203 13.7333 7.06536 13.4667C2.73203 9.66667 2.66536 9.6 2.66536 9.53333L2.5987 9.46667C1.7987 8.66667 1.33203 7.53333 1.33203 6.4V6.26667C1.3987 3.86667 3.33203 2 5.73203 2C6.46536 2 7.46536 2.4 8.06536 3.2C8.66536 2.4 9.73203 2 10.4654 2C12.8654 2 14.732 3.86667 14.8654 6.26667V6.4C14.8654 7.6 14.3987 8.66667 13.5987 9.53333L13.532 9.6C13.4654 9.66667 12.932 10.1333 9.13203 13.5333C8.7987 13.7333 8.46536 13.8667 8.06536 13.8667ZM3.66536 9.33333C3.93203 9.6 5.26536 10.5333 7.73203 12.6667C7.93203 12.8667 8.1987 12.8667 8.3987 12.6667C10.932 10.4 12.3987 9.13333 12.732 8.86667L12.7987 8.8C13.4654 8.13333 13.7987 7.26667 13.7987 6.4V6.26667C13.732 4.4 12.2654 3 10.3987 3C9.93203 3 8.9987 3.33333 8.66536 4.06667C8.53203 4.33333 8.26536 4.46667 7.9987 4.46667C7.73203 4.46667 7.46536 4.33333 7.33203 4.06667C6.9987 3.4 6.13203 3 5.5987 3C3.7987 3 2.26536 4.46667 2.1987 6.26667V6.46667C2.1987 7.33333 2.5987 8.2 3.1987 8.8L3.66536 9.33333Z" fill="#F3734E"/>
</svg>
