<svg width="16" height="16" viewBox="0 0 16 16" fill="none" xmlns="http://www.w3.org/2000/svg">
<g id="User / Users">
<path id="Vector" d="M14 13.333C14 12.1719 12.8869 11.1841 11.3333 10.818M10 13.333C10 11.8602 8.20914 10.6663 6 10.6663C3.79086 10.6663 2 11.8602 2 13.333M10 8.66634C11.4728 8.66634 12.6667 7.47243 12.6667 5.99967C12.6667 4.52692 11.4728 3.33301 10 3.33301M6 8.66634C4.52724 8.66634 3.33333 7.47243 3.33333 5.99967C3.33333 4.52692 4.52724 3.33301 6 3.33301C7.47276 3.33301 8.66667 4.52692 8.66667 5.99967C8.66667 7.47243 7.47276 8.66634 6 8.66634Z" stroke="#F3734E" stroke-width="1.33333" stroke-linecap="round" stroke-linejoin="round"/>
</g>
</svg>
