<svg width="14" height="14" viewBox="0 0 14 14" fill="none" xmlns="http://www.w3.org/2000/svg">
<path fill-rule="evenodd" clip-rule="evenodd" d="M1.82217 6.99902C1.82217 6.56947 2.17039 6.22125 2.59994 6.22125L6.22194 6.22125L6.22194 2.59925C6.22194 2.16969 6.57017 1.82147 6.99972 1.82147C7.42927 1.82147 7.7775 2.16969 7.7775 2.59925L7.7775 6.22125L11.3995 6.22125C11.8291 6.22125 12.1773 6.56947 12.1773 6.99902C12.1773 7.42858 11.8291 7.7768 11.3995 7.7768L7.7775 7.7768L7.7775 11.3988C7.7775 11.8284 7.42927 12.1766 6.99972 12.1766C6.57017 12.1766 6.22194 11.8284 6.22194 11.3988L6.22194 7.7768L2.59994 7.7768C2.17039 7.7768 1.82217 7.42858 1.82217 6.99902Z" fill="#F3734E"/>
</svg>
