<svg width="19" height="19" viewBox="0 0 19 19" fill="none" xmlns="http://www.w3.org/2000/svg">
<g clip-path="url(#clip0_3424_40192)">
<path d="M6.19869 3.33268C6.28682 3.52215 6.47486 3.63382 6.67115 3.63382C6.74483 3.63382 6.81934 3.61813 6.89014 3.58511C7.15103 3.46416 7.26373 3.15455 7.14298 2.89387L6.46908 1.44472C6.34792 1.18403 6.03708 1.07113 5.77784 1.19208C5.51694 1.31324 5.40425 1.62263 5.52499 1.88353L6.19869 3.33268Z" fill="#F3734E"/>
<path d="M6.7168 4.37188C6.7168 4.50728 6.77232 4.64247 6.86974 4.73968C6.96675 4.8369 7.10215 4.89242 7.23734 4.89242C7.37254 4.89242 7.50814 4.83669 7.60536 4.73968C7.70196 4.64247 7.75789 4.50728 7.75789 4.37188C7.75789 4.23317 7.70196 4.10128 7.60536 4.00407C7.41052 3.80984 7.06355 3.80984 6.86974 4.00407C6.77232 4.10149 6.7168 4.23317 6.7168 4.37188Z" fill="#F3734E"/>
<path d="M9.20917 3.85285C9.11216 3.94986 9.05664 4.08526 9.05664 4.22066C9.05664 4.35606 9.11216 4.49126 9.20917 4.58847C9.30618 4.68569 9.43787 4.741 9.57698 4.741C9.71238 4.741 9.84799 4.68548 9.94458 4.58847C10.042 4.49126 10.0973 4.35606 10.0973 4.22066C10.0973 4.08526 10.0418 3.94986 9.94458 3.85285C9.75057 3.65842 9.40009 3.65842 9.20917 3.85285Z" fill="#F3734E"/>
<path d="M9.25304 1.97784C9.53808 1.9411 9.73932 1.68021 9.70238 1.39516C9.68463 1.25502 9.70754 1.16276 9.77111 1.12086C9.85635 1.0641 10.0318 1.05687 10.1746 1.14191C10.2993 1.21539 10.3536 1.33118 10.3404 1.49527C10.3249 1.68722 10.2273 1.76875 9.93086 1.97103C9.66791 2.15039 9.34055 2.37351 9.17708 2.7921C9.07244 3.0598 9.20453 3.36177 9.47224 3.46621C9.53436 3.49077 9.59897 3.50212 9.66151 3.50212C9.86977 3.50212 10.0665 3.37642 10.1466 3.17105C10.1905 3.05794 10.3162 2.96816 10.517 2.8309C10.8374 2.61273 11.3214 2.2829 11.378 1.57866C11.4227 1.01972 11.1711 0.521464 10.7053 0.245917C10.2328 -0.0331389 9.62766 -0.0310749 9.19855 0.25149C8.79276 0.518781 8.60039 0.984012 8.67037 1.52809C8.70669 1.81313 8.96944 2.01417 9.25304 1.97784Z" fill="#F3734E"/>
<path d="M12.234 3.92302C12.3266 3.99113 12.4344 4.02395 12.5413 4.02395C12.7015 4.02395 12.8594 3.95047 12.9611 3.81156L13.9777 2.42702C14.1479 2.19523 14.098 1.86953 13.8664 1.69945C13.635 1.52979 13.3091 1.57912 13.1392 1.81091L12.1225 3.19545C11.9522 3.42745 12.0024 3.75295 12.234 3.92302Z" fill="#F3734E"/>
<path d="M12.9136 17.9999C12.9136 16.7032 11.1616 15.652 9.00051 15.652C6.83939 15.652 5.08747 16.7032 5.08747 17.9999M16.044 15.6523C16.044 14.6896 15.0782 13.8622 13.6962 13.4999M1.95703 15.6523C1.95703 14.6896 2.92284 13.8622 4.30486 13.4999M13.6962 10.3586C14.1765 9.92866 14.4788 9.30392 14.4788 8.60857C14.4788 7.3119 13.4276 6.26074 12.1309 6.26074C11.5296 6.26074 10.9811 6.4868 10.5657 6.85857M4.30486 10.3586C3.82453 9.92866 3.52225 9.30392 3.52225 8.60857C3.52225 7.3119 4.57341 6.26074 5.87007 6.26074C6.4714 6.26074 7.01992 6.4868 7.43529 6.85857M9.00051 13.3042C7.70384 13.3042 6.65268 12.2531 6.65268 10.9564C6.65268 9.65973 7.70384 8.60857 9.00051 8.60857C10.2972 8.60857 11.3483 9.65973 11.3483 10.9564C11.3483 12.2531 10.2972 13.3042 9.00051 13.3042Z" stroke="#F3734E" stroke-width="1.56522" stroke-linecap="round" stroke-linejoin="round"/>
</g>
<defs>
<clipPath id="clip0_3424_40192">
<rect width="18.7826" height="18.7826" fill="white"/>
</clipPath>
</defs>
</svg>
