<svg width="80" height="92" viewBox="0 0 80 92" fill="none" xmlns="http://www.w3.org/2000/svg">
<path d="M44.3724 92C36.149 92 28.6679 90.1155 21.9292 86.3464C15.1906 82.4631 9.82247 77.0379 5.82495 70.0708C1.94165 62.9894 0 54.9373 0 45.9143C0 36.4345 2.05587 28.211 6.1676 21.2439C10.3935 14.2768 15.8759 9.02296 22.6145 5.4823C29.3532 1.82743 36.6058 0 44.3724 0C50.8827 0 56.8218 1.14215 62.1899 3.42644C67.558 5.59652 71.784 8.68032 74.8678 12.6778C78.0658 16.6754 79.6648 21.1868 79.6648 26.2123C79.6648 29.9814 78.694 32.8939 76.7523 34.9497C74.8107 36.8914 72.2408 37.8622 69.0428 37.8622C65.959 37.8622 63.3892 36.8343 61.3333 34.7784C59.2775 32.7225 58.2495 30.1527 58.2495 27.0689C59.9628 25.9268 61.162 24.6704 61.8473 23.2998C62.5326 21.9292 62.8752 20.216 62.8752 18.1601C62.8752 13.9342 61.162 10.5078 57.7356 7.88081C54.4233 5.13966 49.969 3.76909 44.3724 3.76909C36.149 3.76909 29.8101 6.73867 25.3557 12.6778C21.0155 18.5028 18.8454 26.7263 18.8454 37.3482V54.4804C18.8454 64.6456 20.9584 72.8119 25.1844 78.9795C29.5245 85.1471 35.9205 88.2309 44.3724 88.2309C52.139 88.2309 58.8777 86.0608 64.5885 81.7207C70.4134 77.2663 74.0112 71.4413 75.3817 64.2458H79.3222C77.7231 72.6977 73.7256 79.4364 67.3296 84.4618C61.0478 89.4873 53.3954 92 44.3724 92Z" fill="#0F0F0F"/>
</svg>
