<svg width="159" height="93" viewBox="0 0 159 93" fill="none" xmlns="http://www.w3.org/2000/svg">
<path d="M0 89.0183L12.2905 87.2625V6.84756L0 5.09178V1.58021H29.8484V17.7334C34.0622 12.232 38.8029 7.90103 44.0702 4.74062C49.4546 1.58021 55.2487 0 61.4525 0C68.5927 0 74.3868 1.58021 78.8348 4.74062C83.3998 7.78398 86.2676 12.4075 87.4381 18.6113C91.652 12.8758 96.4512 8.36924 101.836 5.09178C107.22 1.69726 113.131 0 119.569 0C127.88 0 134.318 2.10694 138.883 6.32083C143.565 10.4177 145.906 16.68 145.906 25.1077V87.2625L158.196 89.0183V92.5299H117.813V89.0183L128.348 87.2625V25.4589C128.348 19.2551 127.236 14.5145 125.012 11.237C122.788 7.95956 119.159 6.32083 114.126 6.32083C109.327 6.32083 104.645 7.95956 100.08 11.237C95.6318 14.5145 91.5935 18.7284 87.9649 23.8787V87.2625L98.4996 89.0183V92.5299H59.6967V89.0183L70.2314 87.2625V25.4589C70.2314 19.2551 69.1194 14.5145 66.8954 11.237C64.6714 7.95956 61.0428 6.32083 56.0096 6.32083C51.2104 6.32083 46.5283 7.95956 41.9633 11.237C37.5153 14.5145 33.477 18.7284 29.8484 23.8787V87.2625L40.3831 89.0183V92.5299H0V89.0183Z" fill="#0F0F0F"/>
</svg>
