<svg width="104" height="93" viewBox="0 0 104 93" fill="none" xmlns="http://www.w3.org/2000/svg">
<path d="M0 89.0183L12.2905 87.2625V6.84756L0 5.09178V1.58021H29.8484V20.5427C34.1793 14.2219 39.2711 9.24714 45.1237 5.61851C50.9763 1.87284 57.2971 0 64.0862 0C72.514 0 79.1274 2.10694 83.9266 6.32083C88.8428 10.5347 91.3009 16.797 91.3009 25.1077V87.2625L103.591 89.0183V92.5299H63.2083V89.0183L73.743 87.2625V25.4589C73.743 19.3722 72.514 14.6901 70.0559 11.4126C67.5978 8.01809 63.7936 6.32083 58.6432 6.32083C53.2588 6.32083 48.05 8.31072 43.0168 12.2905C38.1006 16.1532 33.7111 20.9524 29.8484 26.6879V87.2625L40.3831 89.0183V92.5299H0V89.0183Z" fill="#0F0F0F"/>
</svg>
