<svg width="89" height="92" viewBox="0 0 89 92" fill="none" xmlns="http://www.w3.org/2000/svg">
<path d="M44.3724 92C36.149 92 28.6679 90.1155 21.9292 86.3464C15.1906 82.4631 9.82247 77.0379 5.82495 70.0708C1.94165 62.9894 0 54.9373 0 45.9143C0 36.8914 1.94165 28.8963 5.82495 21.9292C9.82247 14.9621 15.1906 9.59404 21.9292 5.82495C28.6679 1.94165 36.149 0 44.3724 0C52.5959 0 60.077 1.94165 66.8156 5.82495C73.5543 9.59404 78.8653 14.9621 82.7486 21.9292C86.7461 28.8963 88.7449 36.8914 88.7449 45.9143C88.7449 54.9373 86.7461 62.9894 82.7486 70.0708C78.8653 77.0379 73.5543 82.4631 66.8156 86.3464C60.077 90.1155 52.5959 92 44.3724 92ZM44.3724 88.2309C52.8243 88.2309 59.1633 85.1471 63.3892 78.9795C67.7294 72.8119 69.8994 64.6456 69.8994 54.4804V37.3482C69.8994 27.1831 67.7294 19.0739 63.3892 13.0205C59.1633 6.85289 52.8243 3.76909 44.3724 3.76909C35.9205 3.76909 29.5245 6.85289 25.1844 13.0205C20.9584 19.0739 18.8454 27.1831 18.8454 37.3482V54.4804C18.8454 64.6456 20.9584 72.8119 25.1844 78.9795C29.5245 85.1471 35.9205 88.2309 44.3724 88.2309Z" fill="#0F0F0F"/>
</svg>
